inDegrees=no
num_controls=7
num_derivatives=13
num_iterations=128
num_multipliers=7
num_parameters=0
num_slacks=7
num_states=26
objective=5.357506
objective_accelerations=0.596569
objective_balance=0.033605
objective_effort=0.329308
objective_height=4.291307
objective_ligament=0.106718
solver_duration=1423.355280
status=Solve_Succeeded
success=true
DataType=double
version=3
OpenSimVersion=4.4-2022-07-23-0e9fedc
endheader
time	/jointset/ground_pelvis/pelvis_tilt/value	/jointset/ground_pelvis/pelvis_tx/value	/jointset/ground_pelvis/pelvis_ty/value	/jointset/hip_l/hip_flexion_l/value	/jointset/hip_l/hip_adduction_l/value	/jointset/hip_l/hip_rotation_l/value	/jointset/back/lumbar_extension/value	/jointset/patellofemoral_l/patellar_flexion_l/value	/jointset/knee_l/knee_flexion_l/value	/jointset/knee_l/knee_adduction_l/value	/jointset/knee_l/knee_rotation_l/value	/jointset/ankle_l/ankle_angle_l/value	/jointset/subtalar_l/subtalar_angle_l/value	/jointset/ground_pelvis/pelvis_tilt/speed	/jointset/ground_pelvis/pelvis_tx/speed	/jointset/ground_pelvis/pelvis_ty/speed	/jointset/hip_l/hip_flexion_l/speed	/jointset/hip_l/hip_adduction_l/speed	/jointset/hip_l/hip_rotation_l/speed	/jointset/back/lumbar_extension/speed	/jointset/patellofemoral_l/patellar_flexion_l/speed	/jointset/knee_l/knee_flexion_l/speed	/jointset/knee_l/knee_adduction_l/speed	/jointset/knee_l/knee_rotation_l/speed	/jointset/ankle_l/ankle_angle_l/speed	/jointset/subtalar_l/subtalar_angle_l/speed	/forceset/tau_hip_flexion_l	/forceset/tau_hip_adduction_l	/forceset/tau_hip_rotation_l	/forceset/tau_knee_flexion_l	/forceset/tau_ankle_angle_l	/forceset/tau_subtalar_angle_l	/forceset/tau_lumbar_extension	lambda_cid13_p0	lambda_cid13_p1	lambda_cid13_p2	lambda_cid13_p3	lambda_cid13_p4	lambda_cid13_p5	lambda_cid14_p0	/jointset/ground_pelvis/pelvis_tilt/accel	/jointset/ground_pelvis/pelvis_tx/accel	/jointset/ground_pelvis/pelvis_ty/accel	/jointset/hip_l/hip_flexion_l/accel	/jointset/hip_l/hip_adduction_l/accel	/jointset/hip_l/hip_rotation_l/accel	/jointset/back/lumbar_extension/accel	/jointset/patellofemoral_l/patellar_flexion_l/accel	/jointset/knee_l/knee_flexion_l/accel	/jointset/knee_l/knee_adduction_l/accel	/jointset/knee_l/knee_rotation_l/accel	/jointset/ankle_l/ankle_angle_l/accel	/jointset/subtalar_l/subtalar_angle_l/accel	gamma_cid13_p0	gamma_cid13_p1	gamma_cid13_p2	gamma_cid13_p3	gamma_cid13_p4	gamma_cid13_p5	gamma_cid14_p0
0.5	-0.4457980878063189	-0.09976107927623211	0.7658165676663202	1.165171913528158	-0.4233097791906809	-0.301651360016933	-0.2558261289203236	0.6085581804372988	0.6085581804372713	-0.1616988435252595	-0.1691301589831479	-0.07858066774656539	-0.1108535775513054	-1.06622094005496	-0.3784474155495423	-0.4878431786366057	2.618749905599469	-0.2146764948740905	0.5908819297292438	-0.1040885260620561	1.451603416626531	1.45160341662669	0.02796484992646791	-0.04363114966079504	-0.0153875860856633	-0.2341183970545064	-0.2154606734215378	0.004969944891461323	-0.007054170685840547	-0.1696872387397403	0.1292194296811721	0.06348093078707445	0.1967909146027083	7.416190167196842	-31.16495580297195	7.255974529277866	-9.791946568497597	-525.1704086293123	-69.28188519640094	-34.47972434169294	0.8817210088492138	0.7126313365633064	-0.3151520252435718	-1.64391298972196	0.5190682986461066	-0.08640390601068637	1.119067226288279	-0.9462434568721895	-0.9462434568721197	-0.01114675052648164	0.2096967804044144	0.009927508562157388	0.5634801707584076	2.397774808224281e-08	-6.404916178427056e-07	-9.443557277333652e-08	-2.386632683939765e-07	-1.466146412645501e-07	2.368148979759021e-07	-1.143766496920839e-07
0.51	-0.4564137560261557	-0.1035094811735433	0.7609234249938921	1.191272465997574	-0.4254310338680803	-0.2957488925048687	-0.2568125605210593	0.6230251974257227	0.6230251974255907	-0.1614205334013442	-0.1695575365433184	-0.07873424881983172	-0.1131671431122118	-1.05675459657556	-0.3711975185266795	-0.4906828418837578	2.601002357259633	-0.2095532936331032	0.5895360871986934	-0.09326107350479944	1.441605212614581	1.441605212614668	0.02769661195752515	-0.04184182671675939	-0.01534237746483473	-0.2285814710801894	-0.2223216081686306	0.005643292717030401	-0.006944458028172507	-0.1711313366789746	0.1311669709939655	0.06487092544613025	0.2018180637385226	7.816991014925814	-31.76420762081717	7.266300327953712	-10.10809354782094	-528.6742073547971	-69.04006484579072	-33.89031199634049	1.002816698280549	0.7364373602075017	-0.2530235663677419	-1.893901644357092	0.5122478573509078	-0.1700821403685367	1.05509235781385	-1.055801906637666	-1.055801906648863	-0.03488078700873534	0.1639592521668885	-0.0002510796550381344	0.5508991166087127	2.598184789954736e-08	-6.171025838040679e-07	-1.138011143422526e-07	-2.362710228018405e-07	-1.313068457183181e-07	2.389013087916128e-07	-1.101105241820169e-07
0.52	-0.4669300156750077	-0.1071843304056147	0.7560049556706084	1.217184797805906	-0.4275003961689798	-0.289862164960892	-0.2576926159787508	0.6373863937672568	0.6373863937672233	-0.1611449493500731	-0.1699669390342535	-0.07888779153059181	-0.1154249193522063	-1.046339225864386	-0.3637368825016022	-0.492908508807581	2.581105773390066	-0.2042980195710442	0.5877339361164746	-0.08281329745276628	1.430439287271406	1.43043928727142	0.02741963531136627	-0.04003613574214274	-0.01537991358391163	-0.2229605328722435	-0.229182542916293	0.006316640542462721	-0.006834745368132823	-0.1725754346184633	0.1331145123067636	0.06626092010502277	0.2068452128738164	8.207777598115758	-32.3624136095243	7.277267590365821	-10.39497285272557	-532.3176606950962	-68.82470057863624	-33.28930699671768	1.071526455203359	0.7547791370062429	-0.1923527605777637	-2.073720095668404	0.5454828628607099	-0.1776656163444665	1.043131925243578	-1.179787723117233	-1.179787723117258	-0.01289448596961687	0.2129703865205093	-0.006621439418840103	0.5802826174842545	2.076008321386183e-08	-5.809312058161319e-07	-1.028969230791744e-07	-2.25372667588169e-07	-1.219584246520707e-07	2.410889692000454e-07	-1.079946139871213e-07
0.53	-0.4773376722415699	-0.1107836108489752	0.751067292737799	1.242887834765785	-0.4295165679685977	-0.2839956665623491	-0.2584700312431291	0.6516301786797212	0.6516301786796039	-0.1608721150895392	-0.1703581378913201	-0.07904214225690084	-0.117626096277386	-1.035051077889098	-0.3560917572344021	-0.4945211354660682	2.559167562657165	-0.1989196776120999	0.5854833460651282	-0.07273919507810594	1.418131690112245	1.418131690112239	0.02715025066902995	-0.03820769892432979	-0.01550486001230983	-0.2172664042839992	-0.2358674701971508	0.006870244544721514	-0.006749943637224825	-0.1739922373957846	0.1350913796080734	0.06751179571625221	0.2116843204051642	8.613599974095457	-32.90800992430778	7.285760940966679	-10.65357104477815	-535.8163062582358	-68.51663306977991	-32.67916903320856	1.17861693425847	0.7734526322276877	-0.130299684925613	-2.303974144823541	0.5366248142223298	-0.2611957061665693	0.9791334450292795	-1.284125100046072	-1.284125100049384	-0.03362532542398186	0.1671989114285801	-0.01763188962078078	0.5653449466441142	1.567449046715964e-08	-5.424397554850898e-07	-9.133205277109625e-08	-2.132820980666023e-07	-1.127511139167212e-07	2.409590754819366e-07	-1.051345375233719e-07
0.54	-0.4876282157352276	-0.1143056253575345	0.7461165871251172	1.26836146910192	-0.4314784333582529	-0.2781541620656494	-0.2591487886734191	0.6657453117429247	0.6657453117428295	-0.1606019076494814	-0.1707311686641976	-0.07919818257650089	-0.1197700585232526	-1.022916611291125	-0.3482836955413679	-0.4955170447819671	2.535225248615387	-0.1934367375807254	0.5827351557482988	-0.06308173064536587	1.404708917443885	1.404708917443859	0.0268942711443708	-0.03640251882581121	-0.01571783224350479	-0.2115175970097576	-0.2425523974770447	0.007423848547078297	-0.006665141903879072	-0.1754090401733907	0.1370682469092974	0.06876267132751558	0.216523427937503	9.010192272887934	-33.45278976333153	7.295037455996681	-10.88925436148155	-539.4489990298157	-68.23416502720539	-32.06231571475971	1.240790179740417	0.7873664221730026	-0.06900929206008644	-2.474540757444013	0.5664024773469154	-0.2771856694411223	0.9598043368598822	-1.402822824957193	-1.402822824957139	-0.01021346243403681	0.2083190426615864	-0.0242265999782101	0.5912183546837426	1.073955603592836e-08	-5.01381416604228e-07	-7.903621841323109e-08	-1.998724829277898e-07	-1.036999252495992e-07	2.382650793259521e-07	-1.014511281664225e-07
0.55	-0.4977932873158663	-0.1177488172525964	0.7411590114009625	1.293585867030943	-0.4333849572328003	-0.2723423703843177	-0.2597332156838657	0.6797207257385799	0.6797207257384971	-0.1603341968225668	-0.1710860339390422	-0.07935676474145426	-0.1218562571905992	-1.009953350243766	-0.3403332100729413	-0.4958934116388996	2.509322105868855	-0.1878563741972854	0.5795501655823467	-0.05390311732295838	1.390197464503746	1.390197464503661	0.02664572879461577	-0.03456818025918017	-0.0160095252317384	-0.205717026809521	-0.2490052929623287	0.007830885265287042	-0.006604474946188326	-0.1768401744274128	0.1391284137964682	0.06986763600743141	0.2211292210469331	9.441285252537655	-33.94652009289204	7.30334722246659	-11.11589001105643	-542.9051022212481	-67.86363345057977	-31.4409871755791	1.345750877796593	0.8020721069950616	-0.006266873675425803	-2.698032759437977	0.5557015592558806	-0.3501814126349779	0.8819729481771358	-1.501749215776532	-1.501749215785912	-0.03260277232659185	0.1713714904711808	-0.03328549500735972	0.5753267634027581	8.769678196474311e-10	-4.542786613186191e-07	-5.148107633346117e-08	-1.772340525832785e-07	-9.978743456222425e-08	2.371630549386127e-07	-9.858368387624259e-08
0.5600000000000001	-0.5078243949238738	-0.1211118677934116	0.736200808710006	1.31854126718736	-0.435235307815421	-0.2665646337491416	-0.260228839937393	0.6935457366672756	0.6935457366673196	-0.1600690570490103	-0.1714224797832203	-0.07951859280563438	-0.123884280073801	-0.9961238167739033	-0.3322554246920398	-0.4956424381422339	2.481425694075118	-0.1822020791973218	0.5759241465178813	-0.04532117927071605	1.374628304074262	1.374628304074117	0.02638006040165828	-0.0327186326202276	-0.0163670120904055	-0.1998824401809038	-0.255458188447002	0.008237921983564723	-0.006543807986188457	-0.1782713086816822	0.1411885806835896	0.07097260068736944	0.2257350141569919	9.863813666491721	-34.43964677356073	7.312584082388244	-11.32553268599324	-546.4910311752777	-67.51769648709033	-30.81734229623713	1.414044664241233	0.8128264046678602	0.05645877865951859	-2.873194566885212	0.5811888006518179	-0.3653914491438013	0.8404692828272224	-1.614364322826281	-1.614364322826121	-0.01363867107436756	0.2113608571258818	-0.03738537406499598	0.5980216403598932	-1.48988049386929e-08	-3.999226063473143e-07	-5.614764987406098e-09	-1.43521043991929e-07	-1.020413814505455e-07	2.379713966736472e-07	-9.669539766618618e-08
0.5700000000000001	-0.5177132135493039	-0.1243936189125162	0.7312482318253453	1.343208143416426	-0.4370287641101254	-0.2608251761021427	-0.2606415194690442	0.7072097040363949	0.7072097040364516	-0.1598067446995476	-0.1717401561798535	-0.07968444751588717	-0.1258538619120687	-0.9815073148599317	-0.3240824913711421	-0.4947699156364597	2.45163772158565	-0.1764834129746158	0.5718839207257327	-0.03732354938405903	1.357997145006487	1.357997145006406	0.02608175863575039	-0.03082496743961142	-0.01681893802996002	-0.1940364042667576	-0.2617334308702156	0.008573986025721006	-0.006486597969560524	-0.1795297412085637	0.1429783386410908	0.07198511156513573	0.2301446404142539	10.21063972348179	-34.87953416270656	7.31352545239562	-11.41191330130946	-549.8594445307864	-67.10824188961053	-30.19505608827737	1.505341869838987	0.8213480688112268	0.1180817961428284	-3.078374411312649	0.5681425080681387	-0.4359281969800076	0.7630864937672011	-1.712676284702351	-1.712676284693413	-0.03810172726344514	0.1771584763543588	-0.0513532092057782	0.5775792867339938	-2.317352242021857e-08	-3.53147211619761e-07	2.080198770407114e-08	-1.212678221295125e-07	-9.679094426084849e-08	2.327092388542951e-07	-9.268541014590671e-08
0.58	-0.5274518893725711	-0.1275932764438113	0.7263074667276634	1.367567784756302	-0.4387648463476079	-0.2551286387236376	-0.2609774873713698	0.7207023228976592	0.7207023228977469	-0.1595474505272966	-0.1720391380990934	-0.07985527288659131	-0.1277650464472362	-0.9660952563514887	-0.3158367071301258	-0.4932800807463055	2.419978716242711	-0.1707272677523736	0.5673400928244231	-0.02997885341011993	1.34035860250078	1.340358602500761	0.02577642495328473	-0.02897973714599304	-0.0173611441816923	-0.1882029795609162	-0.2680086732939069	0.008910050067776626	-0.006429387952829007	-0.1807881737353695	0.1447680965986572	0.07299762244282898	0.234554266671034	10.55200597541824	-35.31926901697654	7.315360201116463	-11.50288898284824	-553.3229572964877	-66.718239975495	-29.5805637452109	1.573155983135183	0.827396588691432	0.1799212555354627	-3.247401137579338	0.5886846005592772	-0.4661118709759733	0.7098825002839264	-1.815841010412471	-1.815841010412772	-0.01504505438573429	0.2016738797263446	-0.05544141650071976	0.5954993986989463	-2.167942372728828e-08	-3.162443046515123e-07	2.188908261284319e-08	-1.139389736815201e-07	-8.176735571373268e-08	2.195413141734165e-07	-8.591227673324393e-08
0.59	-0.537032723197704	-0.1307101553895524	0.7213846682159351	1.391601821690485	-0.4404431568337641	-0.2494798354934399	-0.2612432369327511	0.7340136049442249	0.7340136049443233	-0.1592911934120735	-0.1723196959217091	-0.0800319045952252	-0.1296179043830388	-0.9499520370450987	-0.3075302099458181	-0.4911766562014749	2.386529591746064	-0.164933949739992	0.5623451636556248	-0.02329045972094501	1.321734160803005	1.321734160803077	0.0254666426358758	-0.02713393613891675	-0.01797656452663031	-0.1823742663007341	-0.2739307832877365	0.00905749569515359	-0.006404685923340499	-0.1822489534574747	0.1468686803522795	0.07381220765021421	0.2386619593634406	11.00026119693018	-35.70295659716725	7.321048440250648	-11.63670529339477	-556.6048119932518	-66.22943224811006	-28.97401983373492	1.652824057585279	0.8335851643804751	0.2409832702676433	-3.4385322926642	0.5748443950885647	-0.5275510375333642	0.630407676333797	-1.9102762628256	-1.910276262812393	-0.0402612663915294	0.1757483946914085	-0.06630206255487023	0.5757526476476986	-1.856745135674391e-08	-2.850735798620858e-07	1.280415459668267e-08	-1.082401690549584e-07	-6.699958526364143e-08	2.05646317131152e-07	-7.868823004372974e-08
